<svg width="19" height="36" viewBox="0 0 19 36" fill="none" xmlns="http://www.w3.org/2000/svg">
<path d="M17.7694 9.03076L1.45425 0.120157C1.15005 -0.0460427 0.78045 -0.0394427 0.48225 0.137557C0.18345 0.314557 0.00045 0.636157 0.00045 0.982957V16.9562C-0.00015 16.9706 -0.00015 16.9856 0.00045 17V35.0168C0.00045 35.5598 0.44025 36.0002 0.98325 36.0002C1.52625 36.0002 1.96665 35.5604 1.96665 35.0168V17.6222L17.6902 10.7948C18.034 10.6454 18.2638 10.3124 18.28 9.93736C18.2974 9.56296 18.0994 9.21076 17.7694 9.03076ZM1.96665 15.479V2.64016L15.0622 9.79216L1.96665 15.479Z" fill="#FFA945"/>
</svg>
