<svg width="35" height="36" viewBox="0 0 35 36" fill="none" xmlns="http://www.w3.org/2000/svg">
<path d="M4.66527 13.8093C5.19327 13.8093 5.62107 13.3815 5.62107 12.8535V8.94993H9.52527C10.0533 8.94993 10.4811 8.52213 10.4811 7.99413C10.4811 7.46613 10.0533 7.03833 9.52527 7.03833H4.66527C4.13727 7.03833 3.70947 7.46613 3.70947 7.99413V12.8535C3.70947 13.3815 4.13727 13.8093 4.66527 13.8093Z" fill="#FFA945"/>
<path d="M31.3605 19.0659C30.8325 19.0659 30.4047 19.4937 30.4047 20.0217V27.0039L24.6711 32.7375V21.3033C24.6711 20.7753 24.2433 20.3475 23.7153 20.3475C23.1873 20.3475 22.7595 20.7753 22.7595 21.3033V34.0887H17.3427V27.2355C17.3427 26.7075 16.9149 26.2797 16.3869 26.2797H10.8903C10.3623 26.2797 9.93449 26.7075 9.93449 27.2355V34.0887H4.51829V21.3033C4.51829 20.7753 4.09049 20.3475 3.56249 20.3475C3.03449 20.3475 2.60669 20.7753 2.60669 21.3033V35.0439C2.60669 35.5719 3.03449 35.9997 3.56249 35.9997H10.8909C11.4189 35.9997 11.8467 35.5719 11.8467 35.0439V28.1907H15.4323V35.0439C15.4323 35.5719 15.8601 35.9997 16.3881 35.9997H23.7165C23.7789 35.9997 23.8419 35.9931 23.9037 35.9811C23.9337 35.9751 23.9607 35.9649 23.9889 35.9559C24.0207 35.9463 24.0519 35.9397 24.0819 35.9265C24.1167 35.9127 24.1473 35.8935 24.1797 35.8755C24.2019 35.8629 24.2253 35.8533 24.2463 35.8389C24.2991 35.8035 24.3489 35.7633 24.3933 35.7183L32.0355 28.0761C32.0805 28.0317 32.1213 27.9819 32.1561 27.9291C32.1705 27.9069 32.1807 27.8829 32.1933 27.8607C32.2107 27.8289 32.2299 27.7983 32.2437 27.7647C32.2563 27.7341 32.2635 27.7023 32.2725 27.6705C32.2815 27.6429 32.2917 27.6159 32.2977 27.5865C32.3103 27.5247 32.3163 27.4623 32.3163 27.3993V20.0217C32.3163 19.4937 31.8885 19.0659 31.3605 19.0659Z" fill="#FFA945"/>
<path d="M33.9969 13.2651C33.9969 13.2651 33.9963 13.2645 33.9957 13.2645L21.0111 0.2799C20.6373 -0.0933 20.0325 -0.0933 19.6593 0.2799L13.2669 6.6723C13.2669 6.6723 13.2663 6.6723 13.2663 6.6729L0.2799 19.6593C-0.0933 20.0319 -0.0933 20.6373 0.2799 21.0105C0.4671 21.1977 0.7113 21.2907 0.9555 21.2907C1.2003 21.2907 1.4445 21.1977 1.6317 21.0105L8.0247 14.6169L13.9419 8.7003L26.2527 21.0105C26.4399 21.1977 26.6841 21.2907 26.9283 21.2907C27.1731 21.2907 27.4173 21.1977 27.6045 21.0105L33.9969 14.6175C34.0899 14.5245 34.1595 14.4165 34.2069 14.3013C34.2537 14.1867 34.2771 14.0637 34.2771 13.9419C34.2765 13.6965 34.1829 13.4523 33.9969 13.2651ZM20.3349 2.3073L31.9695 13.9419L26.9283 18.9831L15.2937 7.3491L20.3349 2.3073Z" fill="#FFA945"/>
</svg>
