<svg width="48" height="32" viewBox="0 0 48 32" fill="none" xmlns="http://www.w3.org/2000/svg">
<path d="M37.2027 24.2664C37.5329 24.2664 37.8465 24.1211 38.0622 23.8714L47.1275 13.302C47.5351 12.8264 47.4798 12.1123 47.0058 11.7054C46.5302 11.2978 45.8145 11.3523 45.4076 11.8271L36.6813 21.9999H24.0784V19.0311H37.2027C37.5329 19.0311 37.8465 18.8873 38.0622 18.6361L47.1275 8.06827C47.5351 7.59348 47.4798 6.87853 47.0058 6.47089C46.5302 6.06325 45.8145 6.11776 45.4076 6.59255L36.6813 16.7662H24.0784V14.5336H35.6914C36.0224 14.5336 36.3361 14.3898 36.5517 14.1386L45.617 3.5708C45.9045 3.23505 45.9709 2.76263 45.7868 2.35973C45.602 1.95762 45.1999 1.70008 44.7567 1.70008H32.6112C32.7953 1.38092 32.8166 0.98908 32.6562 0.64859C32.469 0.2528 32.0701 0 31.6316 0H19.8132C19.4735 0 19.1528 0.15168 18.9379 0.41396L17.8817 1.70008H10.1973C9.8671 1.70008 9.55347 1.84465 9.3378 2.09508L0.27334 12.6629C-0.01501 12.9994 -0.08058 13.4711 0.10349 13.874C0.28835 14.2753 0.69046 14.5328 1.13365 14.5328H9.9935V16.7362H1.13365C0.50797 16.7369 0 17.2441 0 17.869C0 18.4955 0.50797 19.0035 1.13365 19.0035H9.9935V21.9999H1.13365C0.50797 21.9999 0 22.5071 0 23.132C0 23.7585 0.50797 24.2664 1.13365 24.2664H9.9935V26.8047H1.13365C0.50797 26.8047 0 27.3111 0 27.9368C0 28.5624 0.50797 29.0696 1.13365 29.0696H9.9935V30.415C9.9935 31.0399 10.5007 31.5479 11.1272 31.5479H22.9456C23.5712 31.5479 24.0792 31.0399 24.0792 30.415V29.0696H37.2035C37.5337 29.0696 37.8473 28.9259 38.063 28.6746L47.1282 18.1068C47.5359 17.6312 47.4806 16.9171 47.0066 16.5102C46.531 16.1026 45.8153 16.1571 45.4084 16.6319L36.6813 26.8047H24.0784V24.2664H37.2027ZM35.1708 12.2671H24.0784V12.1147L30.7721 3.96659H42.2919L35.1708 12.2671ZM3.59845 12.2671L10.7195 3.96659H16.0204L10.2503 10.9897C10.0844 11.1919 9.9935 11.4463 9.9935 11.7086V12.2671H3.59845ZM21.8111 29.2813H12.2592V12.1147L20.3488 2.26651H29.2347L22.0694 10.9897C21.9028 11.1919 21.8119 11.4463 21.8119 11.7086V29.2813H21.8111Z" fill="#FFA945"/>
<path d="M17.1888 19.3353C16.2195 18.934 15.8079 18.644 15.8079 18.065C15.8079 17.6194 16.1302 17.1051 16.9882 17.1051C17.7015 17.1051 18.1589 17.3508 18.3928 17.4843L18.6716 16.748C18.3493 16.56 17.8919 16.3807 17.2228 16.3593V15.2778H16.5315V16.4028C15.5069 16.5711 14.848 17.2734 14.848 18.1969C14.848 19.1678 15.5511 19.6797 16.6872 20.1253C17.5127 20.4602 17.948 20.8394 17.948 21.4525C17.948 22.0868 17.4116 22.545 16.6208 22.545C15.9967 22.545 15.4176 22.3317 15.0163 22.0655L14.7477 22.8121C15.138 23.0917 15.8079 23.2916 16.4533 23.3027V24.4276H17.1564V23.2687C18.3043 23.0807 18.9173 22.2551 18.9173 21.3743C18.9165 20.3828 18.3383 19.8045 17.1888 19.3353Z" fill="#FFA945"/>
</svg>
