<svg width="48" height="33" viewBox="0 0 48 33" fill="none" xmlns="http://www.w3.org/2000/svg">
<path d="M46.2806 30.6978H44.1539V1.12022C44.1539 0.501649 43.6522 0 43.0337 0H36.8353C36.2168 0 35.7151 0.501649 35.7151 1.12022V30.6978H33.5268V17.6099C33.5268 16.9921 33.0252 16.4905 32.4074 16.4905H26.2083C25.5897 16.4905 25.0888 16.9921 25.0888 17.6099V30.697H23.0483V11.1548C23.0483 10.5362 22.5466 10.0354 21.9288 10.0354H15.7297C15.1111 10.0354 14.6095 10.5362 14.6095 11.1548V30.697H12.2742V20.299C12.2742 19.6813 11.7726 19.1796 11.1548 19.1796H4.95725C4.33868 19.1796 3.83703 19.6813 3.83703 20.299V30.6978H1.12022C0.50165 30.6978 0 31.1987 0 31.8172C0 32.4358 0.50165 32.9375 1.12022 32.9375H4.95725H11.1556H15.7305H21.9296H26.209H32.4082H36.8353H43.0337H46.2806C46.8984 32.9375 47.4 32.4358 47.4 31.8172C47.4 31.1987 46.8984 30.6978 46.2806 30.6978ZM6.07668 30.6978V21.4193H10.0354V30.6978H6.07668ZM16.8499 30.6978V12.275H20.8102V30.6978H16.8499ZM27.3293 30.6978V18.7293H31.2887V30.697L27.3293 30.6978ZM37.9548 30.6978V2.23886H41.915V30.697L37.9548 30.6978Z" fill="#FFA945"/>
</svg>
