<svg width="24" height="36" viewBox="0 0 24 36" fill="none" xmlns="http://www.w3.org/2000/svg">
<path d="M12 31.641C12.3738 31.641 12.7266 31.4622 12.9468 31.1604C13.9884 29.739 23.1222 17.1054 23.1222 11.3928C23.1222 5.217 18.0294 0 12 0C5.97061 0 0.877808 5.217 0.877808 11.3928C0.877808 17.1054 10.0116 29.739 11.0532 31.1604C11.2734 31.4628 11.6262 31.641 12 31.641ZM12 2.3484C16.7568 2.3484 20.7738 6.4896 20.7738 11.3928C20.7738 15.156 15.111 24.0102 12 28.449C8.88721 24.0114 3.22621 15.1584 3.22621 11.3928C3.22621 6.4896 7.24441 2.3484 12 2.3484Z" fill="#FFA945"/>
<path d="M15.627 11.3988C15.627 9.39899 14.0004 7.77179 12 7.77179C10.0008 7.77179 8.37302 9.39899 8.37302 11.3988C8.37302 13.3986 10.0008 15.0258 12 15.0258C14.0004 15.0258 15.627 13.3986 15.627 11.3988ZM9.54722 11.3988C9.54722 10.0464 10.6476 8.94599 12 8.94599C13.3524 8.94599 14.4528 10.0464 14.4528 11.3988C14.4528 12.7512 13.3524 13.8516 12 13.8516C10.6476 13.8516 9.54722 12.7512 9.54722 11.3988Z" fill="#FFA945"/>
<path d="M20.2992 30.4614C20.2044 30.1512 19.8726 29.9796 19.5654 30.0738L12 32.409L4.43461 30.0732C4.12621 29.9796 3.79741 30.1512 3.70081 30.4608C3.60421 30.7704 3.77821 31.0992 4.08841 31.1952L10.0086 33.0234L4.08841 34.8516C3.77761 34.9476 3.60421 35.2764 3.70081 35.5866C3.77821 35.838 4.01041 36 4.26121 36C4.32001 36 4.37701 35.9916 4.43461 35.9742L12 33.6378L19.5654 35.9742C19.623 35.9916 19.6818 36 19.7388 36C19.9896 36 20.2218 35.838 20.2992 35.5866C20.3952 35.2764 20.2218 34.9482 19.9116 34.8516L13.9914 33.0234L19.9116 31.1952C20.2218 31.0998 20.3952 30.771 20.2992 30.4614Z" fill="#FFA945"/>
</svg>
