<svg width="36" height="36" viewBox="0 0 36 36" fill="none" xmlns="http://www.w3.org/2000/svg">
<path d="M18.0702 11.7462C14.7138 11.7462 11.9844 14.4762 11.9844 17.832C11.9844 21.1884 14.7138 23.9184 18.0702 23.9184C21.4266 23.9184 24.156 21.1878 24.156 17.832C24.156 14.4762 21.4266 11.7462 18.0702 11.7462ZM18.0702 22.0626C15.7368 22.0626 13.8396 20.1648 13.8396 17.832C13.8396 15.4992 15.7368 13.6014 18.0702 13.6014C20.4024 13.6014 22.3008 15.4992 22.3008 17.832C22.3008 20.1648 20.4024 22.0626 18.0702 22.0626Z" fill="#FFA945"/>
<path d="M10.9116 12.309C11.0934 12.4908 11.3298 12.5808 11.568 12.5808C11.805 12.5808 12.0426 12.4908 12.2232 12.309C12.5862 11.9466 12.5862 11.3592 12.2232 10.9968L6.51478 5.2884C6.15178 4.926 5.56438 4.926 5.20198 5.2884C4.83958 5.6508 4.83958 6.2382 5.20198 6.6006L10.9116 12.309Z" fill="#FFA945"/>
<path d="M24.9492 23.7234C24.5868 23.361 24 23.361 23.6364 23.7234C23.274 24.0858 23.274 24.6732 23.6364 25.0356L29.346 30.7446C29.5266 30.9258 29.7642 31.0164 30.0024 31.0164C30.2394 31.0164 30.477 30.9258 30.6576 30.7446C31.0206 30.3822 31.0206 29.7948 30.6576 29.4324L24.9492 23.7234Z" fill="#FFA945"/>
<path d="M11.01 23.8224L5.30161 29.5314C4.93861 29.8938 4.93861 30.4806 5.30161 30.8436C5.48221 31.0248 5.71981 31.1154 5.95681 31.1154C6.19441 31.1154 6.43261 31.0248 6.61321 30.8436L12.3228 25.1346C12.6852 24.7722 12.6852 24.1854 12.3228 23.8224C11.9604 23.4606 11.373 23.4606 11.01 23.8224Z" fill="#FFA945"/>
<path d="M24.3924 12.6798C24.6294 12.6798 24.867 12.5898 25.0476 12.408L30.7572 6.6996C31.1196 6.3372 31.1196 5.7504 30.7572 5.3874C30.3948 5.025 29.808 5.025 29.4444 5.3874L23.736 11.0964C23.3736 11.4588 23.3736 12.0456 23.736 12.408C23.9166 12.5892 24.1548 12.6798 24.3924 12.6798Z" fill="#FFA945"/>
<path d="M9.9294 18C9.9294 17.4876 9.5148 17.0724 9.0012 17.0724H0.9282C0.4146 17.0724 0 17.4876 0 18C0 18.5124 0.4146 18.9276 0.9282 18.9276H9.0012C9.5142 18.9276 9.9294 18.5124 9.9294 18Z" fill="#FFA945"/>
<path d="M35.0718 17.0724H26.9988C26.4864 17.0724 26.0706 17.487 26.0706 18C26.0706 18.513 26.4864 18.9276 26.9988 18.9276H35.0718C35.5854 18.9276 36 18.5124 36 18C36 17.4876 35.5854 17.0724 35.0718 17.0724Z" fill="#FFA945"/>
<path d="M18.1392 26.0706C17.6268 26.0706 17.2122 26.4858 17.2122 26.9982V35.0724C17.2122 35.5848 17.6268 36 18.1392 36C18.6522 36 19.0674 35.5848 19.0674 35.0724V26.9982C19.0674 26.4864 18.6528 26.0706 18.1392 26.0706Z" fill="#FFA945"/>
<path d="M18.1392 9.9294C18.6522 9.9294 19.0674 9.5142 19.0674 9.0018V0.9276C19.0674 0.4152 18.6528 0 18.1392 0C17.6268 0 17.2122 0.4152 17.2122 0.9276V9.0018C17.2128 9.5136 17.6274 9.9294 18.1392 9.9294Z" fill="#FFA945"/>
</svg>
